<svg width="128" height="128" viewBox="0 0 128 128" fill="none" xmlns="http://www.w3.org/2000/svg">
<path fill-rule="evenodd" clip-rule="evenodd" d="M61.3761 27.7986C60.6234 33.8197 58.5546 39.4285 55.4596 44.3236C49.8387 43.2543 44.3915 40.977 39.521 37.4841L35.934 34.9117L34.9117 35.934L37.4841 39.521C41.0645 44.5134 43.3675 50.1118 44.4016 55.8821C39.5902 59.2311 34.003 61.5612 27.9411 62.5597L23.5857 63.2771V64.7229L27.9411 65.4403C33.855 66.4144 39.317 68.6559 44.0477 71.8744C42.7749 77.5243 40.2717 82.9532 36.5464 87.743L27.1579 99.814L28.186 100.842L40.2571 91.4537C44.9248 87.8232 50.1995 85.3535 55.6942 84.052C58.6592 88.8576 60.6426 94.3338 61.3761 100.201L63.273 115.376H64.727L66.6239 100.201C67.3765 94.1804 69.4453 88.5715 72.5403 83.6764C78.1613 84.7458 83.6085 87.023 88.479 90.5159L92.066 93.0884L93.0884 92.0661L90.5159 88.479C86.9355 83.4866 84.6325 77.8882 83.5984 72.1179C88.4099 68.7689 93.997 66.4388 100.059 65.4403L104.414 64.7229L104.414 63.2771L100.059 62.5597C94.145 61.5856 88.683 59.3441 83.9523 56.1256C85.2251 50.4758 87.7283 45.0469 91.4537 40.2571L100.842 28.186L99.814 27.1579L87.743 36.5464C83.0752 40.1768 77.8005 42.6465 72.3058 43.9481C69.3408 39.1424 67.3574 33.6663 66.6239 27.7985L64.727 12.6244H63.273L61.3761 27.7986ZM64 18.6216L62.8301 27.9803C62.0764 34.0093 60.0495 39.6394 57.0203 44.5889C61.5921 45.2738 66.2532 45.1683 70.7903 44.2764C67.866 39.4029 65.9077 33.8828 65.1699 27.9803L64 18.6216ZM38.6945 38.6945C42.2503 43.6611 44.5874 49.2051 45.7135 54.9292C49.1464 52.3288 52.1443 49.1925 54.5875 45.6448C48.9846 44.4939 43.5622 42.1795 38.6945 38.6945ZM56.1597 45.9365C53.4254 50.0424 49.9825 53.636 45.9982 56.5434C46.7597 61.4166 46.6531 66.3922 45.6832 71.2289C49.9095 74.2532 53.5401 78.0437 56.3796 82.3973C61.4659 81.3266 66.7134 81.2136 71.8403 82.0636C74.5746 77.9577 78.0175 74.364 82.0018 71.4566C81.2404 66.5834 81.3469 61.6078 82.3168 56.7711C78.0905 53.7469 74.4599 49.9564 71.6204 45.6028C66.5341 46.6734 61.2865 46.7865 56.1597 45.9365ZM28.2125 64C34.2388 63.0024 39.8117 60.7348 44.6555 57.4835C45.2441 61.7497 45.1463 66.0873 44.3653 70.3235C39.5896 67.1754 34.1189 64.9777 28.2125 64ZM37.703 88.6426C41.4332 83.8465 43.981 78.4322 45.3389 72.7904C49.0559 75.5388 52.2772 78.9094 54.8547 82.7482C49.3409 84.1265 44.0529 86.6451 39.3575 90.297L31.9126 96.0874L37.703 88.6426ZM62.8301 100.02C62.0922 94.1173 60.134 88.5971 57.2097 83.7237C61.7467 82.8318 66.4079 82.7262 70.9796 83.4112C67.9505 88.3607 65.9236 93.9907 65.1699 100.02L64 109.378L62.8301 100.02ZM89.3055 89.3056C84.4378 85.8205 79.0154 83.5062 73.4125 82.3552C75.8556 78.8076 78.8536 75.6712 82.2865 73.0708C83.4126 78.7949 85.7497 84.3389 89.3055 89.3056ZM99.7874 64C93.7611 64.9976 88.1884 67.2652 83.3445 70.5165C82.7559 66.2503 82.8538 61.9127 83.6347 57.6765C88.4105 60.8246 93.8811 63.0223 99.7874 64ZM90.297 39.3575C86.5668 44.1535 84.019 49.5679 82.6611 55.2096C78.9441 52.4612 75.7228 49.0907 73.1453 45.2519C78.6591 43.8736 83.9471 41.3549 88.6425 37.703L96.0874 31.9127L90.297 39.3575Z" fill="white"/>
<path fill-rule="evenodd" clip-rule="evenodd" d="M128 64C128 99.3462 99.3462 128 64 128C28.6538 128 0 99.3462 0 64C0 28.6538 28.6538 0 64 0C99.3462 0 128 28.6538 128 64ZM126.535 64C126.535 98.537 98.537 126.535 64 126.535C29.463 126.535 1.46528 98.537 1.46528 64C1.46528 29.463 29.463 1.46528 64 1.46528C98.537 1.46528 126.535 29.463 126.535 64Z" fill="white"/>
</svg>
